<mxfile host="app.diagrams.net" agent="Mozilla/5.0 (X11; Linux x86_64; Chromium GOST) AppleWebKit/537.36 (KHTML, like Gecko) Chrome/128.0.0.0 Safari/537.36" version="24.8.3">
  <diagram name="Страница — 1" id="Feetv1NmW-jW-5myhWX-">
    <mxGraphModel dx="1434" dy="1930" grid="1" gridSize="10" guides="1" tooltips="1" connect="1" arrows="1" fold="1" page="1" pageScale="1" pageWidth="827" pageHeight="1169" math="0" shadow="0">
      <root>
        <mxCell id="0" />
        <mxCell id="1" parent="0" />
        <mxCell id="RBoqL-KpNlwkgGDFapnS-9" style="edgeStyle=orthogonalEdgeStyle;rounded=0;orthogonalLoop=1;jettySize=auto;html=1;entryX=0;entryY=0.5;entryDx=0;entryDy=0;" edge="1" parent="1" source="RBoqL-KpNlwkgGDFapnS-1" target="RBoqL-KpNlwkgGDFapnS-7">
          <mxGeometry relative="1" as="geometry" />
        </mxCell>
        <mxCell id="RBoqL-KpNlwkgGDFapnS-1" value="Игрок" style="shape=umlActor;verticalLabelPosition=bottom;verticalAlign=top;html=1;outlineConnect=0;" vertex="1" parent="1">
          <mxGeometry x="20" y="-190" width="30" height="60" as="geometry" />
        </mxCell>
        <mxCell id="RBoqL-KpNlwkgGDFapnS-11" style="edgeStyle=orthogonalEdgeStyle;rounded=0;orthogonalLoop=1;jettySize=auto;html=1;exitX=1;exitY=0.5;exitDx=0;exitDy=0;entryX=0;entryY=0.5;entryDx=0;entryDy=0;" edge="1" parent="1" source="RBoqL-KpNlwkgGDFapnS-6" target="RBoqL-KpNlwkgGDFapnS-10">
          <mxGeometry relative="1" as="geometry" />
        </mxCell>
        <mxCell id="RBoqL-KpNlwkgGDFapnS-6" value="Меню - предупреждение" style="ellipse;whiteSpace=wrap;html=1;fontSize=7;" vertex="1" parent="1">
          <mxGeometry x="180" y="-175" width="70" height="30" as="geometry" />
        </mxCell>
        <mxCell id="RBoqL-KpNlwkgGDFapnS-8" style="edgeStyle=orthogonalEdgeStyle;rounded=0;orthogonalLoop=1;jettySize=auto;html=1;entryX=0;entryY=0.5;entryDx=0;entryDy=0;" edge="1" parent="1" source="RBoqL-KpNlwkgGDFapnS-7" target="RBoqL-KpNlwkgGDFapnS-6">
          <mxGeometry relative="1" as="geometry" />
        </mxCell>
        <mxCell id="RBoqL-KpNlwkgGDFapnS-7" value="Запуск игры" style="ellipse;whiteSpace=wrap;html=1;fontSize=10;" vertex="1" parent="1">
          <mxGeometry x="80" y="-175" width="70" height="30" as="geometry" />
        </mxCell>
        <mxCell id="RBoqL-KpNlwkgGDFapnS-27" style="edgeStyle=orthogonalEdgeStyle;rounded=0;orthogonalLoop=1;jettySize=auto;html=1;exitX=1;exitY=0.5;exitDx=0;exitDy=0;entryX=0;entryY=0.5;entryDx=0;entryDy=0;" edge="1" parent="1" source="RBoqL-KpNlwkgGDFapnS-10" target="RBoqL-KpNlwkgGDFapnS-12">
          <mxGeometry relative="1" as="geometry" />
        </mxCell>
        <mxCell id="RBoqL-KpNlwkgGDFapnS-28" style="edgeStyle=orthogonalEdgeStyle;rounded=0;orthogonalLoop=1;jettySize=auto;html=1;exitX=1;exitY=0.5;exitDx=0;exitDy=0;entryX=0;entryY=0.5;entryDx=0;entryDy=0;" edge="1" parent="1" source="RBoqL-KpNlwkgGDFapnS-10" target="RBoqL-KpNlwkgGDFapnS-13">
          <mxGeometry relative="1" as="geometry" />
        </mxCell>
        <mxCell id="RBoqL-KpNlwkgGDFapnS-29" style="edgeStyle=orthogonalEdgeStyle;rounded=0;orthogonalLoop=1;jettySize=auto;html=1;exitX=0.5;exitY=0;exitDx=0;exitDy=0;entryX=0.5;entryY=1;entryDx=0;entryDy=0;" edge="1" parent="1" source="RBoqL-KpNlwkgGDFapnS-10" target="RBoqL-KpNlwkgGDFapnS-14">
          <mxGeometry relative="1" as="geometry" />
        </mxCell>
        <mxCell id="RBoqL-KpNlwkgGDFapnS-30" style="edgeStyle=orthogonalEdgeStyle;rounded=0;orthogonalLoop=1;jettySize=auto;html=1;exitX=0.5;exitY=1;exitDx=0;exitDy=0;entryX=0.5;entryY=0;entryDx=0;entryDy=0;" edge="1" parent="1" source="RBoqL-KpNlwkgGDFapnS-10" target="RBoqL-KpNlwkgGDFapnS-15">
          <mxGeometry relative="1" as="geometry" />
        </mxCell>
        <mxCell id="RBoqL-KpNlwkgGDFapnS-10" value="Главное меню" style="ellipse;whiteSpace=wrap;html=1;fontSize=7;" vertex="1" parent="1">
          <mxGeometry x="280" y="-175" width="70" height="30" as="geometry" />
        </mxCell>
        <mxCell id="RBoqL-KpNlwkgGDFapnS-73" style="edgeStyle=orthogonalEdgeStyle;rounded=0;orthogonalLoop=1;jettySize=auto;html=1;exitX=0.5;exitY=0;exitDx=0;exitDy=0;entryX=0;entryY=0.5;entryDx=0;entryDy=0;" edge="1" parent="1" source="RBoqL-KpNlwkgGDFapnS-12" target="RBoqL-KpNlwkgGDFapnS-26">
          <mxGeometry relative="1" as="geometry">
            <Array as="points">
              <mxPoint x="450" y="-205" />
              <mxPoint x="450" y="-210" />
            </Array>
          </mxGeometry>
        </mxCell>
        <mxCell id="RBoqL-KpNlwkgGDFapnS-12" value="Режим истории" style="ellipse;whiteSpace=wrap;html=1;fontSize=7;fillColor=#dae8fc;strokeColor=#6c8ebf;" vertex="1" parent="1">
          <mxGeometry x="390" y="-205" width="70" height="30" as="geometry" />
        </mxCell>
        <mxCell id="RBoqL-KpNlwkgGDFapnS-33" style="edgeStyle=orthogonalEdgeStyle;rounded=0;orthogonalLoop=1;jettySize=auto;html=1;exitX=1;exitY=0.5;exitDx=0;exitDy=0;entryX=0.5;entryY=1;entryDx=0;entryDy=0;" edge="1" parent="1" source="RBoqL-KpNlwkgGDFapnS-13" target="RBoqL-KpNlwkgGDFapnS-26">
          <mxGeometry relative="1" as="geometry" />
        </mxCell>
        <mxCell id="RBoqL-KpNlwkgGDFapnS-13" value="Фриплей (меню выбора любой песни для переигрывания + бонусные песни)" style="ellipse;whiteSpace=wrap;html=1;fontSize=5;fillColor=#e1d5e7;strokeColor=#9673a6;" vertex="1" parent="1">
          <mxGeometry x="390" y="-145" width="70" height="30" as="geometry" />
        </mxCell>
        <mxCell id="RBoqL-KpNlwkgGDFapnS-14" value="Настройки" style="ellipse;whiteSpace=wrap;html=1;fontSize=7;" vertex="1" parent="1">
          <mxGeometry x="280" y="-230" width="70" height="30" as="geometry" />
        </mxCell>
        <mxCell id="RBoqL-KpNlwkgGDFapnS-15" value="Кредиты (если есть)" style="ellipse;whiteSpace=wrap;html=1;fontSize=7;" vertex="1" parent="1">
          <mxGeometry x="280" y="-120" width="70" height="30" as="geometry" />
        </mxCell>
        <mxCell id="RBoqL-KpNlwkgGDFapnS-38" style="edgeStyle=orthogonalEdgeStyle;rounded=0;orthogonalLoop=1;jettySize=auto;html=1;exitX=1;exitY=0.5;exitDx=0;exitDy=0;entryX=0;entryY=0.5;entryDx=0;entryDy=0;" edge="1" parent="1" source="RBoqL-KpNlwkgGDFapnS-25" target="RBoqL-KpNlwkgGDFapnS-35">
          <mxGeometry relative="1" as="geometry" />
        </mxCell>
        <mxCell id="RBoqL-KpNlwkgGDFapnS-39" style="edgeStyle=orthogonalEdgeStyle;rounded=0;orthogonalLoop=1;jettySize=auto;html=1;exitX=1;exitY=0.5;exitDx=0;exitDy=0;entryX=0;entryY=0.5;entryDx=0;entryDy=0;" edge="1" parent="1" source="RBoqL-KpNlwkgGDFapnS-25" target="RBoqL-KpNlwkgGDFapnS-36">
          <mxGeometry relative="1" as="geometry" />
        </mxCell>
        <mxCell id="RBoqL-KpNlwkgGDFapnS-44" style="edgeStyle=orthogonalEdgeStyle;rounded=0;orthogonalLoop=1;jettySize=auto;html=1;exitX=0.5;exitY=0;exitDx=0;exitDy=0;entryX=0.5;entryY=1;entryDx=0;entryDy=0;" edge="1" parent="1" source="RBoqL-KpNlwkgGDFapnS-25" target="RBoqL-KpNlwkgGDFapnS-43">
          <mxGeometry relative="1" as="geometry" />
        </mxCell>
        <mxCell id="RBoqL-KpNlwkgGDFapnS-47" style="edgeStyle=orthogonalEdgeStyle;rounded=0;orthogonalLoop=1;jettySize=auto;html=1;exitX=0.5;exitY=1;exitDx=0;exitDy=0;entryX=0.5;entryY=0;entryDx=0;entryDy=0;" edge="1" parent="1" source="RBoqL-KpNlwkgGDFapnS-25" target="RBoqL-KpNlwkgGDFapnS-46">
          <mxGeometry relative="1" as="geometry" />
        </mxCell>
        <mxCell id="RBoqL-KpNlwkgGDFapnS-25" value="Песня" style="ellipse;whiteSpace=wrap;html=1;fontSize=14;fillColor=#ffe6cc;strokeColor=#d79b00;" vertex="1" parent="1">
          <mxGeometry x="630" y="-195" width="150" height="70" as="geometry" />
        </mxCell>
        <mxCell id="RBoqL-KpNlwkgGDFapnS-32" style="edgeStyle=orthogonalEdgeStyle;rounded=0;orthogonalLoop=1;jettySize=auto;html=1;exitX=1;exitY=0.5;exitDx=0;exitDy=0;entryX=0;entryY=0.5;entryDx=0;entryDy=0;" edge="1" parent="1" source="RBoqL-KpNlwkgGDFapnS-26" target="RBoqL-KpNlwkgGDFapnS-25">
          <mxGeometry relative="1" as="geometry" />
        </mxCell>
        <mxCell id="RBoqL-KpNlwkgGDFapnS-26" value="Загрузка" style="ellipse;whiteSpace=wrap;html=1;fontSize=7;" vertex="1" parent="1">
          <mxGeometry x="520" y="-225" width="70" height="30" as="geometry" />
        </mxCell>
        <mxCell id="RBoqL-KpNlwkgGDFapnS-42" style="edgeStyle=orthogonalEdgeStyle;rounded=0;orthogonalLoop=1;jettySize=auto;html=1;exitX=1;exitY=0.5;exitDx=0;exitDy=0;entryX=0;entryY=0.5;entryDx=0;entryDy=0;" edge="1" parent="1" source="RBoqL-KpNlwkgGDFapnS-35" target="RBoqL-KpNlwkgGDFapnS-41">
          <mxGeometry relative="1" as="geometry" />
        </mxCell>
        <mxCell id="RBoqL-KpNlwkgGDFapnS-35" value="Уровень пройден (если песня была открыта с помощью режима истории и она не является последней)" style="ellipse;whiteSpace=wrap;html=1;fontSize=5;fillColor=#dae8fc;strokeColor=#6c8ebf;" vertex="1" parent="1">
          <mxGeometry x="820" y="-300" width="100" height="40" as="geometry" />
        </mxCell>
        <mxCell id="RBoqL-KpNlwkgGDFapnS-37" style="edgeStyle=orthogonalEdgeStyle;rounded=0;orthogonalLoop=1;jettySize=auto;html=1;exitX=0.5;exitY=1;exitDx=0;exitDy=0;entryX=0.5;entryY=1;entryDx=0;entryDy=0;" edge="1" parent="1" source="RBoqL-KpNlwkgGDFapnS-36" target="RBoqL-KpNlwkgGDFapnS-13">
          <mxGeometry relative="1" as="geometry" />
        </mxCell>
        <mxCell id="RBoqL-KpNlwkgGDFapnS-36" value="Уровень пройден (если песня была открыта с помощью фриплея)" style="ellipse;whiteSpace=wrap;html=1;fontSize=6;fillColor=#e1d5e7;strokeColor=#9673a6;" vertex="1" parent="1">
          <mxGeometry x="820" y="-80" width="100" height="40" as="geometry" />
        </mxCell>
        <mxCell id="RBoqL-KpNlwkgGDFapnS-66" style="edgeStyle=orthogonalEdgeStyle;rounded=0;orthogonalLoop=1;jettySize=auto;html=1;exitX=0.5;exitY=0;exitDx=0;exitDy=0;entryX=0.5;entryY=0;entryDx=0;entryDy=0;fillColor=#ffe6cc;strokeColor=#d79b00;" edge="1" parent="1" source="RBoqL-KpNlwkgGDFapnS-41" target="RBoqL-KpNlwkgGDFapnS-35">
          <mxGeometry relative="1" as="geometry" />
        </mxCell>
        <mxCell id="RBoqL-KpNlwkgGDFapnS-67" style="edgeStyle=orthogonalEdgeStyle;rounded=0;orthogonalLoop=1;jettySize=auto;html=1;exitX=0.5;exitY=0;exitDx=0;exitDy=0;entryX=1;entryY=0.5;entryDx=0;entryDy=0;fontColor=default;labelBorderColor=none;labelBackgroundColor=default;strokeColor=#d79b00;fillColor=#ffe6cc;" edge="1" parent="1" source="RBoqL-KpNlwkgGDFapnS-41" target="RBoqL-KpNlwkgGDFapnS-43">
          <mxGeometry relative="1" as="geometry" />
        </mxCell>
        <mxCell id="RBoqL-KpNlwkgGDFapnS-41" value="Следующая песня" style="ellipse;whiteSpace=wrap;html=1;fontSize=14;fillColor=#ffe6cc;strokeColor=#d79b00;" vertex="1" parent="1">
          <mxGeometry x="960" y="-195" width="150" height="70" as="geometry" />
        </mxCell>
        <mxCell id="RBoqL-KpNlwkgGDFapnS-76" style="edgeStyle=orthogonalEdgeStyle;rounded=0;orthogonalLoop=1;jettySize=auto;html=1;exitX=0.5;exitY=0;exitDx=0;exitDy=0;entryX=0.5;entryY=0;entryDx=0;entryDy=0;" edge="1" parent="1" source="RBoqL-KpNlwkgGDFapnS-43" target="RBoqL-KpNlwkgGDFapnS-12">
          <mxGeometry relative="1" as="geometry" />
        </mxCell>
        <mxCell id="RBoqL-KpNlwkgGDFapnS-43" value="Уровень пройден (если песня была открыта с помощью режима истории и она является последней)" style="ellipse;whiteSpace=wrap;html=1;fontSize=5;fillColor=#d5e8d4;strokeColor=#82b366;" vertex="1" parent="1">
          <mxGeometry x="655" y="-255" width="100" height="40" as="geometry" />
        </mxCell>
        <mxCell id="RBoqL-KpNlwkgGDFapnS-52" style="edgeStyle=orthogonalEdgeStyle;rounded=0;orthogonalLoop=1;jettySize=auto;html=1;exitX=0;exitY=0.5;exitDx=0;exitDy=0;entryX=1;entryY=0.5;entryDx=0;entryDy=0;" edge="1" parent="1" source="RBoqL-KpNlwkgGDFapnS-46" target="RBoqL-KpNlwkgGDFapnS-48">
          <mxGeometry relative="1" as="geometry" />
        </mxCell>
        <mxCell id="RBoqL-KpNlwkgGDFapnS-54" style="edgeStyle=orthogonalEdgeStyle;rounded=0;orthogonalLoop=1;jettySize=auto;html=1;exitX=0;exitY=0.5;exitDx=0;exitDy=0;entryX=1;entryY=0.5;entryDx=0;entryDy=0;" edge="1" parent="1" source="RBoqL-KpNlwkgGDFapnS-46" target="RBoqL-KpNlwkgGDFapnS-53">
          <mxGeometry relative="1" as="geometry" />
        </mxCell>
        <mxCell id="RBoqL-KpNlwkgGDFapnS-59" style="edgeStyle=orthogonalEdgeStyle;rounded=0;orthogonalLoop=1;jettySize=auto;html=1;exitX=0;exitY=0.5;exitDx=0;exitDy=0;entryX=1;entryY=0.5;entryDx=0;entryDy=0;" edge="1" parent="1" source="RBoqL-KpNlwkgGDFapnS-46" target="RBoqL-KpNlwkgGDFapnS-58">
          <mxGeometry relative="1" as="geometry" />
        </mxCell>
        <mxCell id="RBoqL-KpNlwkgGDFapnS-46" value="Игрок проиграл" style="ellipse;whiteSpace=wrap;html=1;fontSize=7;fillColor=#a20025;fontColor=#ffffff;strokeColor=#6F0000;" vertex="1" parent="1">
          <mxGeometry x="670" y="-100" width="70" height="30" as="geometry" />
        </mxCell>
        <mxCell id="RBoqL-KpNlwkgGDFapnS-56" style="edgeStyle=orthogonalEdgeStyle;rounded=0;orthogonalLoop=1;jettySize=auto;html=1;exitX=0.5;exitY=0;exitDx=0;exitDy=0;entryX=0;entryY=0.5;entryDx=0;entryDy=0;" edge="1" parent="1" source="RBoqL-KpNlwkgGDFapnS-48" target="RBoqL-KpNlwkgGDFapnS-25">
          <mxGeometry relative="1" as="geometry" />
        </mxCell>
        <mxCell id="RBoqL-KpNlwkgGDFapnS-48" value="Выбор &quot;рестарт&quot;" style="ellipse;whiteSpace=wrap;html=1;fontSize=7;" vertex="1" parent="1">
          <mxGeometry x="560" y="-140" width="70" height="30" as="geometry" />
        </mxCell>
        <mxCell id="RBoqL-KpNlwkgGDFapnS-71" style="edgeStyle=orthogonalEdgeStyle;rounded=0;orthogonalLoop=1;jettySize=auto;html=1;exitX=0;exitY=0.5;exitDx=0;exitDy=0;entryX=0.5;entryY=1;entryDx=0;entryDy=0;fillColor=#e1d5e7;strokeColor=#9673a6;" edge="1" parent="1" source="RBoqL-KpNlwkgGDFapnS-53" target="RBoqL-KpNlwkgGDFapnS-13">
          <mxGeometry relative="1" as="geometry" />
        </mxCell>
        <mxCell id="RBoqL-KpNlwkgGDFapnS-53" value="Выбор &quot;обратно&quot; (если песня была открыта через фриплей)" style="ellipse;whiteSpace=wrap;html=1;fontSize=5;fillColor=#e1d5e7;strokeColor=#9673a6;" vertex="1" parent="1">
          <mxGeometry x="560" y="-60" width="70" height="30" as="geometry" />
        </mxCell>
        <mxCell id="RBoqL-KpNlwkgGDFapnS-68" style="edgeStyle=orthogonalEdgeStyle;rounded=0;orthogonalLoop=1;jettySize=auto;html=1;exitX=0;exitY=0.5;exitDx=0;exitDy=0;entryX=1;entryY=0.5;entryDx=0;entryDy=0;fillColor=#dae8fc;strokeColor=#6c8ebf;" edge="1" parent="1" source="RBoqL-KpNlwkgGDFapnS-58" target="RBoqL-KpNlwkgGDFapnS-12">
          <mxGeometry relative="1" as="geometry" />
        </mxCell>
        <mxCell id="RBoqL-KpNlwkgGDFapnS-58" value="Выбор &quot;обратно&quot; (если песня была открыта через режим истории)" style="ellipse;whiteSpace=wrap;html=1;fontSize=5;fillColor=#dae8fc;strokeColor=#6c8ebf;" vertex="1" parent="1">
          <mxGeometry x="560" y="-100" width="70" height="30" as="geometry" />
        </mxCell>
      </root>
    </mxGraphModel>
  </diagram>
</mxfile>
